<?xml version="1.0" encoding="utf-8"?>
<!-- Generator: Adobe Illustrator 22.0.0, SVG Export Plug-In . SVG Version: 6.00 Build 0)  -->
<svg version="1.1" id="Layer_1" xmlns="http://www.w3.org/2000/svg" xmlns:xlink="http://www.w3.org/1999/xlink" x="0px" y="0px"
	 viewBox="0 0 200.8 49.3" style="enable-background:new 0 0 200.8 49.3;" xml:space="preserve">
<style type="text/css">
	.st0{fill:#1568BF;}
	.st1{fill:#F0B7A8;}
</style>
<g>
	<g>
		<path class="st0" d="M22.8,2.7h9l19,44.7H40.7l-4.1-9.9H17.8l-4.1,9.9H3.8L22.8,2.7z M33.1,28.8l-5.9-14.4l-5.9,14.4H33.1z"/>
		<path class="st0" d="M123.9,2.7h9l19,44.7h-10.2l-4.1-9.9h-18.8l-4.1,9.9h-9.9L123.9,2.7z M134.2,28.8l-5.9-14.4l-5.9,14.4H134.2z
			"/>
	</g>
	<g>
		<g>
			<polygon class="st0" points="77.9,42.1 72.5,47.4 83.2,47.4 			"/>
			<path class="st0" d="M67,33.9c-2-2.4-3.2-5.6-3.2-9c0-7.8,6.3-14.1,14.1-14.1S92,17.1,92,24.9c0,3.4-1.2,6.6-3.2,9l6.3,6.3
				c3.6-4.1,5.8-9.4,5.8-15.3c0-12.7-10.3-23-23-23s-23,10.3-23,23c0,5.9,2.2,11.2,5.8,15.3L67,33.9z"/>
		</g>
		<polygon class="st1" points="97.9,47.4 83.3,32.7 83.3,32.7 77.9,27.3 77.9,27.3 77.9,27.3 72.5,32.7 72.5,32.7 57.8,47.4 
			68.2,47.4 77.9,38 87.6,47.4 		"/>
	</g>
	<path class="st0" d="M158.6,3h20.3c5.6,0,10,1.6,12.9,4.5c2.5,2.5,3.8,6,3.8,10.1v0.1c0,7.2-3.9,11.7-9.5,13.8L197,47.4h-11.4
		L176,33.2h-7.7v14.2h-9.8V3z M178.3,24.6c4.8,0,7.5-2.5,7.5-6.3v-0.1c0-4.2-2.9-6.3-7.7-6.3h-9.7v12.7H178.3z"/>
</g>
</svg>
